<svg width="28" height="30" viewBox="0 0 28 30" fill="none" xmlns="http://www.w3.org/2000/svg">
<path d="M14 7.125C10.1495 7.125 6.99945 10.275 6.99945 14.1256C6.99945 15.7006 7.52445 17.1 8.39889 18.2386C8.39889 18.2386 8.66139 18.5881 8.74834 18.6767C9.53584 19.6397 11.4603 22.3517 11.4603 24.6272H16.7103C16.7103 22.3517 18.6347 19.6397 19.4222 18.6767C19.5092 18.5897 19.7717 18.2386 19.7717 18.2386C20.6461 17.1017 21.1711 15.6136 21.1711 14.1256C21.0005 10.275 17.8505 7.125 14 7.125H14Z" fill="black"/>
<path d="M11.375 26.3745H16.625V29.8739H11.375V26.3745Z" fill="black"/>
<path d="M0.000564575 13.2495H5.25057V15H0.000564575V13.2495Z" fill="black"/>
<path d="M22.7495 13.2495H27.9994V15H22.7495V13.2495Z" fill="black"/>
<path d="M23.2908 3.60583L24.5279 4.84286L20.8151 8.55558L19.5781 7.31855L23.2908 3.60583Z" fill="black"/>
<path d="M13.1256 0.124451H14.8761V5.37445H13.1256V0.124451Z" fill="black"/>
<path d="M4.71884 3.59784L8.43155 7.31056L7.19453 8.54758L3.48181 4.83487L4.71884 3.59784Z" fill="black"/>
</svg>
