<svg width="22" height="30" viewBox="0 0 22 30" fill="none" xmlns="http://www.w3.org/2000/svg">
<path d="M21.5 10.6245C21.5 9.57446 20.8881 8.6114 19.925 8.26196C20.5369 7.47446 20.6256 6.33752 20.1005 5.37446C19.5755 4.4114 18.5256 3.97502 17.5625 4.06196C17.6494 3.0989 17.213 2.0489 16.25 1.5239C15.2869 0.998903 14.2369 1.08584 13.3625 1.69945C13.013 0.738029 12.05 0.124451 11 0.124451C9.94999 0.124451 8.98693 0.736391 8.63749 1.69945C7.76305 1.08751 6.71305 1.00053 5.74999 1.52555C4.78693 2.05056 4.35055 3.10055 4.43749 4.06361C3.47443 3.97665 2.42443 4.41306 1.89943 5.37611C1.37443 6.33917 1.46137 7.38917 2.07498 8.26361C1.20054 8.70167 0.499977 9.57611 0.499977 10.6261C0.499977 11.6761 1.11192 12.6392 2.07498 12.9886C1.46304 13.7761 1.37442 14.913 1.89943 15.8761C2.42443 16.8392 3.47443 17.2755 4.43749 17.1886C4.35054 18.1517 4.78694 19.2017 5.74999 19.7267C5.74999 19.7267 5.83694 19.7267 5.83694 19.8136L3.21194 28.2136L6.5375 26.4631L8.28806 29.7886L11 21.1261H11.087H11.1739L13.8858 29.8756L15.6364 26.55L18.962 28.3006L16.25 19.8136C16.25 19.8136 16.337 19.8136 16.337 19.7267C17.3 19.2017 17.7364 18.1517 17.6495 17.1886C18.6125 17.2756 19.6625 16.8392 20.1875 15.8761C20.7125 14.913 20.6256 13.863 20.012 12.9886C20.8881 12.6375 21.5001 11.6745 21.5001 10.6245L21.5 10.6245ZM11 16.7506C7.5875 16.7506 4.87556 14.0386 4.87556 10.6261C4.87556 7.21364 7.5875 4.5017 11 4.5017C14.4125 4.5017 17.1244 7.21364 17.1244 10.6261C17.1244 14.037 14.4125 16.7506 11 16.7506Z" fill="black"/>
</svg>
