<svg width="44" height="44" viewBox="0 0 44 44" fill="none" xmlns="http://www.w3.org/2000/svg">
<path d="M40.375 32.6242L35.875 25.75V25.6257L43.2508 21.9999L35.875 18.3741V18.2499L40.375 11.3757L32.125 11.8749L32.6242 3.62495L25.75 8.12495H25.6258L22 0.749146L18.3742 8.12495H18.25L11.3758 3.62495L11.875 11.8749L3.625 11.3757L8.125 18.2499V18.3741L0.749199 21.9999L8.125 25.6257V25.75L3.625 32.6242L11.875 32.1249L11.3758 40.3749L18.25 35.8749H18.3742L22 43.2507L25.6258 35.8749H25.75L32.6242 40.3749L32.125 32.1249L40.375 32.6242ZM22 32.0007C16.4992 32.0007 11.9992 27.5007 11.9992 21.9999C11.9992 16.4991 16.4992 11.9991 22 11.9991C27.5008 11.9991 32.0008 16.4991 32.0008 21.9999C32.0008 27.5007 27.5008 32.0007 22 32.0007Z" fill="#5D5FEF"/>
<path d="M22 14.5C17.875 14.5 14.5 17.875 14.5 22C14.5 26.125 17.875 29.5 22 29.5C26.125 29.5 29.5 26.125 29.5 22C29.5 17.875 26.125 14.5 22 14.5Z" fill="#5D5FEF"/>
</svg>
